<svg xmlns="http://www.w3.org/2000/svg" width="979.994" height="1271.913" viewBox="0 0 979.994 1271.913">
    <g data-name="그룹 22" style="opacity:.43">
        <path data-name="패스 14" d="M225.266 402.995c102.617-21.376 119.945-38.707 141.324-141.324 21.376 102.617 38.7 119.947 141.322 141.324C405.295 424.371 387.966 441.7 366.59 544.318 345.211 441.7 327.883 424.371 225.266 402.995" transform="translate(52.346 -261.671)" style="fill:#fef5e7"/>
        <path data-name="패스 26" d="M225.266 402.995c102.617-21.376 119.945-38.707 141.324-141.324 21.376 102.617 38.7 119.947 141.322 141.324C405.295 424.371 387.966 441.7 366.59 544.318 345.211 441.7 327.883 424.371 225.266 402.995" transform="translate(330.76 -261.671)" style="fill:#fef5e7"/>
        <path data-name="패스 24" d="M225.266 402.995c102.617-21.376 119.945-38.707 141.324-141.324 21.376 102.617 38.7 119.947 141.322 141.324C405.295 424.371 387.966 441.7 366.59 544.318 345.211 441.7 327.883 424.371 225.266 402.995" transform="translate(52.346 303.624)" style="fill:#fef5e7"/>
        <path data-name="패스 27" d="M225.266 402.995c102.617-21.376 119.945-38.707 141.324-141.324 21.376 102.617 38.7 119.947 141.322 141.324C405.295 424.371 387.966 441.7 366.59 544.318 345.211 441.7 327.883 424.371 225.266 402.995" transform="translate(330.76 303.624)" style="fill:#fef5e7"/>
        <path data-name="패스 17" d="M225.266 402.995c102.617-21.376 119.945-38.707 141.324-141.324 21.376 102.617 38.7 119.947 141.322 141.324C405.295 424.371 387.966 441.7 366.59 544.318 345.211 441.7 327.883 424.371 225.266 402.995" transform="translate(52.346 20.976)" style="fill:#fef5e7"/>
        <path data-name="패스 28" d="M225.266 402.995c102.617-21.376 119.945-38.707 141.324-141.324 21.376 102.617 38.7 119.947 141.322 141.324C405.295 424.371 387.966 441.7 366.59 544.318 345.211 441.7 327.883 424.371 225.266 402.995" transform="translate(330.76 20.976)" style="fill:#fef5e7"/>
        <path data-name="패스 20" d="M225.266 402.995c102.617-21.376 119.945-38.707 141.324-141.324 21.376 102.617 38.7 119.947 141.322 141.324C405.295 424.371 387.966 441.7 366.59 544.318 345.211 441.7 327.883 424.371 225.266 402.995" transform="translate(52.346 586.271)" style="fill:#fef5e7"/>
        <path data-name="패스 29" d="M225.266 402.995c102.617-21.376 119.945-38.707 141.324-141.324 21.376 102.617 38.7 119.947 141.322 141.324C405.295 424.371 387.966 441.7 366.59 544.318 345.211 441.7 327.883 424.371 225.266 402.995" transform="translate(330.76 586.271)" style="fill:#fef5e7"/>
        <path data-name="패스 16" d="M225.266 402.995c102.617-21.376 119.945-38.707 141.324-141.324 21.376 102.617 38.7 119.947 141.322 141.324C405.295 424.371 387.966 441.7 366.59 544.318 345.211 441.7 327.883 424.371 225.266 402.995" transform="translate(-225.266 -261.671)" style="fill:#fef5e7"/>
        <path data-name="패스 25" d="M225.266 402.995c102.617-21.376 119.945-38.707 141.324-141.324 21.376 102.617 38.7 119.947 141.322 141.324C405.295 424.371 387.966 441.7 366.59 544.318 345.211 441.7 327.883 424.371 225.266 402.995" transform="translate(-225.266 303.624)" style="fill:#fef5e7"/>
        <path data-name="패스 18" d="M225.266 402.995c102.617-21.376 119.945-38.707 141.324-141.324 21.376 102.617 38.7 119.947 141.322 141.324C405.295 424.371 387.966 441.7 366.59 544.318 345.211 441.7 327.883 424.371 225.266 402.995" transform="translate(-225.266 20.976)" style="fill:#fef5e7"/>
        <path data-name="패스 22" d="M225.266 402.995c102.617-21.376 119.945-38.707 141.324-141.324 21.376 102.617 38.7 119.947 141.322 141.324C405.295 424.371 387.966 441.7 366.59 544.318 345.211 441.7 327.883 424.371 225.266 402.995" transform="translate(-225.266 586.271)" style="fill:#fef5e7"/>
        <path data-name="패스 15" d="M225.266 402.995c102.617-21.376 119.945-38.707 141.324-141.324 21.376 102.617 38.7 119.947 141.322 141.324C405.295 424.371 387.966 441.7 366.59 544.318 345.211 441.7 327.883 424.371 225.266 402.995" transform="translate(-84.745 -120.347)" style="fill:#fef5e7"/>
        <path data-name="패스 30" d="M225.266 402.995c102.617-21.376 119.945-38.707 141.324-141.324 21.376 102.617 38.7 119.947 141.322 141.324C405.295 424.371 387.966 441.7 366.59 544.318 345.211 441.7 327.883 424.371 225.266 402.995" transform="translate(193.669 -120.347)" style="fill:#fef5e7"/>
        <path data-name="패스 37" d="M225.266 402.995c102.617-21.376 119.945-38.707 141.324-141.324 21.376 102.617 38.7 119.947 141.322 141.324C405.295 424.371 387.966 441.7 366.59 544.318 345.211 441.7 327.883 424.371 225.266 402.995" transform="translate(472.083 -120.347)" style="fill:#fef5e7"/>
        <path data-name="패스 23" d="M225.266 402.995c102.617-21.376 119.945-38.707 141.324-141.324 21.376 102.617 38.7 119.947 141.322 141.324C405.295 424.371 387.966 441.7 366.59 544.318 345.211 441.7 327.883 424.371 225.266 402.995" transform="translate(-84.745 444.947)" style="fill:#fef5e7"/>
        <path data-name="패스 31" d="M225.266 402.995c102.617-21.376 119.945-38.707 141.324-141.324 21.376 102.617 38.7 119.947 141.322 141.324C405.295 424.371 387.966 441.7 366.59 544.318 345.211 441.7 327.883 424.371 225.266 402.995" transform="translate(193.669 444.947)" style="fill:#fef5e7"/>
        <path data-name="패스 35" d="M225.266 402.995c102.617-21.376 119.945-38.707 141.324-141.324 21.376 102.617 38.7 119.947 141.322 141.324C405.295 424.371 387.966 441.7 366.59 544.318 345.211 441.7 327.883 424.371 225.266 402.995" transform="translate(472.083 444.947)" style="fill:#fef5e7"/>
        <path data-name="패스 19" d="M225.266 402.995c102.617-21.376 119.945-38.707 141.324-141.324 21.376 102.617 38.7 119.947 141.322 141.324C405.295 424.371 387.966 441.7 366.59 544.318 345.211 441.7 327.883 424.371 225.266 402.995" transform="translate(-84.745 162.3)" style="fill:#fef5e7"/>
        <path data-name="패스 32" d="M225.266 402.995c102.617-21.376 119.945-38.707 141.324-141.324 21.376 102.617 38.7 119.947 141.322 141.324C405.295 424.371 387.966 441.7 366.59 544.318 345.211 441.7 327.883 424.371 225.266 402.995" transform="translate(193.669 162.3)" style="fill:#fef5e7"/>
        <path data-name="패스 34" d="M225.266 402.995c102.617-21.376 119.945-38.707 141.324-141.324 21.376 102.617 38.7 119.947 141.322 141.324C405.295 424.371 387.966 441.7 366.59 544.318 345.211 441.7 327.883 424.371 225.266 402.995" transform="translate(472.083 162.3)" style="fill:#fef5e7"/>
        <path data-name="패스 21" d="M225.266 402.995c102.617-21.376 119.945-38.707 141.324-141.324 21.376 102.617 38.7 119.947 141.322 141.324C405.295 424.371 387.966 441.7 366.59 544.318 345.211 441.7 327.883 424.371 225.266 402.995" transform="translate(-84.745 727.595)" style="fill:#fef5e7"/>
        <path data-name="패스 33" d="M225.266 402.995c102.617-21.376 119.945-38.707 141.324-141.324 21.376 102.617 38.7 119.947 141.322 141.324C405.295 424.371 387.966 441.7 366.59 544.318 345.211 441.7 327.883 424.371 225.266 402.995" transform="translate(193.669 727.595)" style="fill:#fef5e7"/>
        <path data-name="패스 36" d="M225.266 402.995c102.617-21.376 119.945-38.707 141.324-141.324 21.376 102.617 38.7 119.947 141.322 141.324C405.295 424.371 387.966 441.7 366.59 544.318 345.211 441.7 327.883 424.371 225.266 402.995" transform="translate(472.083 727.595)" style="fill:#fef5e7"/>
    </g>
</svg>
