<svg xmlns="http://www.w3.org/2000/svg" width="507" height="507" viewBox="0 0 507 507">
    <defs>
        <clipPath id="wplqubedgb">
            <rect data-name="사각형 19" width="507" height="507" rx="253.5" transform="rotate(90 1058.5 1800.5)" style="fill:url(#lcue6ptupa)"/>
        </clipPath>
        <clipPath id="tu9tmnaohc">
            <path style="fill:none" d="M0 0h508v514.77H0z"/>
        </clipPath>
        <linearGradient id="lcue6ptupa" y1=".5" x2="1" y2=".5" gradientUnits="objectBoundingBox">
            <stop offset="0" stop-color="#242424"/>
            <stop offset="1" stop-opacity="0"/>
        </linearGradient>
    </defs>
    <g data-name="마스크 그룹 1" transform="translate(-2352 -742)" style="clip-path:url(#wplqubedgb)">
        <g data-name="반복 그리드 2" transform="translate(2362.197 742)" style="clip-path:url(#tu9tmnaohc)">
            <g data-name="그룹 9">
                <path data-name="선 2" transform="translate(.5 .5)" style="stroke:#fff7eb;stroke-linecap:round;fill:none" d="M0 0v937.945"/>
                <path data-name="선 13" transform="translate(17.5 .5)" style="stroke:#fff7eb;stroke-linecap:round;fill:none" d="M0 0v937.945"/>
            </g>
            <g data-name="그룹 9">
                <path data-name="선 2" transform="translate(33.5 .5)" style="stroke:#fff7eb;stroke-linecap:round;fill:none" d="M0 0v937.945"/>
                <path data-name="선 13" transform="translate(50.5 .5)" style="stroke:#fff7eb;stroke-linecap:round;fill:none" d="M0 0v937.945"/>
            </g>
            <g data-name="그룹 9">
                <path data-name="선 2" transform="translate(66.5 .5)" style="stroke:#fff7eb;stroke-linecap:round;fill:none" d="M0 0v937.945"/>
                <path data-name="선 13" transform="translate(83.5 .5)" style="stroke:#fff7eb;stroke-linecap:round;fill:none" d="M0 0v937.945"/>
            </g>
            <g data-name="그룹 9">
                <path data-name="선 2" transform="translate(99.5 .5)" style="stroke:#fff7eb;stroke-linecap:round;fill:none" d="M0 0v937.945"/>
                <path data-name="선 13" transform="translate(116.5 .5)" style="stroke:#fff7eb;stroke-linecap:round;fill:none" d="M0 0v937.945"/>
            </g>
            <g data-name="그룹 9">
                <path data-name="선 2" transform="translate(132.5 .5)" style="stroke:#fff7eb;stroke-linecap:round;fill:none" d="M0 0v937.945"/>
                <path data-name="선 13" transform="translate(149.5 .5)" style="stroke:#fff7eb;stroke-linecap:round;fill:none" d="M0 0v937.945"/>
            </g>
            <g data-name="그룹 9">
                <path data-name="선 2" transform="translate(165.5 .5)" style="stroke:#fff7eb;stroke-linecap:round;fill:none" d="M0 0v937.945"/>
                <path data-name="선 13" transform="translate(182.5 .5)" style="stroke:#fff7eb;stroke-linecap:round;fill:none" d="M0 0v937.945"/>
            </g>
            <g data-name="그룹 9">
                <path data-name="선 2" transform="translate(198.5 .5)" style="stroke:#fff7eb;stroke-linecap:round;fill:none" d="M0 0v937.945"/>
                <path data-name="선 13" transform="translate(215.5 .5)" style="stroke:#fff7eb;stroke-linecap:round;fill:none" d="M0 0v937.945"/>
            </g>
            <g data-name="그룹 9">
                <path data-name="선 2" transform="translate(231.5 .5)" style="stroke:#fff7eb;stroke-linecap:round;fill:none" d="M0 0v937.945"/>
                <path data-name="선 13" transform="translate(248.5 .5)" style="stroke:#fff7eb;stroke-linecap:round;fill:none" d="M0 0v937.945"/>
            </g>
            <g data-name="그룹 9">
                <path data-name="선 2" transform="translate(264.5 .5)" style="stroke:#fff7eb;stroke-linecap:round;fill:none" d="M0 0v937.945"/>
                <path data-name="선 13" transform="translate(281.5 .5)" style="stroke:#fff7eb;stroke-linecap:round;fill:none" d="M0 0v937.945"/>
            </g>
            <g data-name="그룹 9">
                <path data-name="선 2" transform="translate(297.5 .5)" style="stroke:#fff7eb;stroke-linecap:round;fill:none" d="M0 0v937.945"/>
                <path data-name="선 13" transform="translate(314.5 .5)" style="stroke:#fff7eb;stroke-linecap:round;fill:none" d="M0 0v937.945"/>
            </g>
            <g data-name="그룹 9">
                <path data-name="선 2" transform="translate(330.5 .5)" style="stroke:#fff7eb;stroke-linecap:round;fill:none" d="M0 0v937.945"/>
                <path data-name="선 13" transform="translate(347.5 .5)" style="stroke:#fff7eb;stroke-linecap:round;fill:none" d="M0 0v937.945"/>
            </g>
            <g data-name="그룹 9">
                <path data-name="선 2" transform="translate(363.5 .5)" style="stroke:#fff7eb;stroke-linecap:round;fill:none" d="M0 0v937.945"/>
                <path data-name="선 13" transform="translate(380.5 .5)" style="stroke:#fff7eb;stroke-linecap:round;fill:none" d="M0 0v937.945"/>
            </g>
            <g data-name="그룹 9">
                <path data-name="선 2" transform="translate(396.5 .5)" style="stroke:#fff7eb;stroke-linecap:round;fill:none" d="M0 0v937.945"/>
                <path data-name="선 13" transform="translate(413.5 .5)" style="stroke:#fff7eb;stroke-linecap:round;fill:none" d="M0 0v937.945"/>
            </g>
            <g data-name="그룹 9">
                <path data-name="선 2" transform="translate(429.5 .5)" style="stroke:#fff7eb;stroke-linecap:round;fill:none" d="M0 0v937.945"/>
                <path data-name="선 13" transform="translate(446.5 .5)" style="stroke:#fff7eb;stroke-linecap:round;fill:none" d="M0 0v937.945"/>
            </g>
            <g data-name="그룹 9">
                <path data-name="선 2" transform="translate(462.5 .5)" style="stroke:#fff7eb;stroke-linecap:round;fill:none" d="M0 0v937.945"/>
                <path data-name="선 13" transform="translate(479.5 .5)" style="stroke:#fff7eb;stroke-linecap:round;fill:none" d="M0 0v937.945"/>
            </g>
            <g data-name="그룹 9">
                <path data-name="선 2" transform="translate(495.5 .5)" style="stroke:#fff7eb;stroke-linecap:round;fill:none" d="M0 0v937.945"/>
                <path data-name="선 13" transform="translate(512.5 .5)" style="stroke:#fff7eb;stroke-linecap:round;fill:none" d="M0 0v937.945"/>
            </g>
        </g>
    </g>
</svg>
