<svg xmlns="http://www.w3.org/2000/svg" width="415.606" height="391.452" viewBox="0 0 415.606 391.452">
    <g data-name="그룹 27">
        <path data-name="선 1" transform="translate(40.72 88)" style="fill:none;stroke:#ffb231;stroke-linecap:round;stroke-width:10px;stroke-dasharray:1 40" d="M0 0v216.114"/>
        <path data-name="선 7" transform="translate(190.704 5)" style="fill:none;stroke:#ffb231;stroke-linecap:round;stroke-width:10px;stroke-dasharray:1 40" d="M0 0v381.452"/>
        <path data-name="선 11" transform="translate(336.76 46)" style="fill:none;stroke:#ffb231;stroke-linecap:round;stroke-width:10px;stroke-dasharray:1 40" d="M0 0v299.246"/>
        <path data-name="선 4" transform="translate(115.222 46)" style="fill:none;stroke:#ffb231;stroke-linecap:round;stroke-width:10px;stroke-dasharray:1 40" d="M0 0v299.246"/>
        <path data-name="선 6" transform="translate(262.185 5)" style="fill:none;stroke:#ffb231;stroke-linecap:round;stroke-width:10px;stroke-dasharray:1 40" d="M0 0v381.452"/>
        <path data-name="선 10" transform="translate(410.606 128.726)" style="fill:none;stroke:#ffb231;stroke-linecap:round;stroke-width:10px;stroke-dasharray:1 40" d="M0 0v130.946"/>
        <path data-name="선 2" transform="translate(5 128.726)" style="fill:none;stroke:#ffb231;stroke-linecap:round;stroke-width:10px;stroke-dasharray:1 40" d="M0 0v143.959"/>
        <path data-name="선 8" transform="translate(154.963 5)" style="fill:none;stroke:#ffb231;stroke-linecap:round;stroke-width:10px;stroke-dasharray:1 40" d="M0 0v381.452"/>
        <path data-name="선 12" transform="translate(297.926 46)" style="fill:none;stroke:#ffb231;stroke-linecap:round;stroke-width:10px;stroke-dasharray:1 40" d="M0 0v299.246"/>
        <path data-name="선 3" transform="translate(75.44 46)" style="fill:none;stroke:#ffb231;stroke-linecap:round;stroke-width:10px;stroke-dasharray:1 40" d="M0 0v299.246"/>
        <path data-name="선 5" transform="translate(226.444 5)" style="fill:none;stroke:#ffb231;stroke-linecap:round;stroke-width:10px;stroke-dasharray:1 40" d="M0 0v381.452"/>
        <path data-name="선 9" transform="translate(374.48 88)" style="fill:none;stroke:#ffb231;stroke-linecap:round;stroke-width:10px;stroke-dasharray:1 40" d="M0 0v216.114"/>
    </g>
</svg>
