<svg xmlns="http://www.w3.org/2000/svg" width="38" height="38" viewBox="0 0 38 38">
    <g data-name="그룹 4">
        <path data-name="패스 2" d="M1.99 9.361a7.371 7.371 0 1 1 7.371 7.371A7.379 7.379 0 0 1 1.99 9.361M9.361 0A9.361 9.361 0 1 0 15.2 16.671a.992.992 0 0 0 .166.249l8.107 8.107a1 1 0 0 0 1.407-1.407l-8.108-8.107a.967.967 0 0 0-.229-.152A9.358 9.358 0 0 0 9.361 0z" transform="translate(6.414 6.341)" style="fill:#171717"/>
        <path data-name="사각형 17" style="fill:none" d="M0 0h38v38H0z"/>
    </g>
</svg>
